# xmcd
#
# Track frame offsets:
#	150
#	15135
#	33813
#	51798
#	74602
#	89242
#	105624
#	119980
#	145892
#	166424
#	185951
#	200342
#	227314
#	244770
#	260668
#	274932
#	293581
#
# Disc length: 4117 seconds
#
# Revision: 4
# Processed by: cddbd v1.5.2PL0 Copyright (c) Steve Scherf et al.
# Submitted via: Jack! The Knife 18 Bulletproof
#
DISCID=fd101311
DTITLE=Simply Red - Song Book [CD 3)
DYEAR=2013
DGENRE=Pop
TTITLE0=Sunrise
TTITLE1=Your Eyes
TTITLE2=Fake
TTITLE3=You Make Me Feel Brand New
TTITLE4=Home
TTITLE5=My Perfect Love
TTITLE6=Smile
TTITLE7=Sad Old Red
TTITLE8=Positively 4th Street
TTITLE9=Oh! What A Girl!
TTITLE10=Perfect Love
TTITLE11=Something For You
TTITLE12=So Not Over You
TTITLE13=The World And You Tonight
TTITLE14=I Have The Love
TTITLE15=A Song For You
TTITLE16=It's You
EXTD=
EXTT0=
EXTT1=
EXTT2=
EXTT3=
EXTT4=
EXTT5=
EXTT6=
EXTT7=
EXTT8=
EXTT9=
EXTT10=
EXTT11=
EXTT12=
EXTT13=
EXTT14=
EXTT15=
EXTT16=
PLAYORDER=
